<mxfile host="app.diagrams.net" modified="2021-02-13T15:57:09.282Z" agent="5.0 (Windows NT 10.0; Win64; x64) AppleWebKit/537.36 (KHTML, like Gecko) Chrome/88.0.4324.150 Safari/537.36" etag="4O5CheFQ55tolAm0ndow" version="14.3.1" type="github">
  <diagram id="C5RBs43oDa-KdzZeNtuy" name="Page-1">
    <mxGraphModel dx="1564" dy="950" grid="1" gridSize="10" guides="1" tooltips="1" connect="1" arrows="1" fold="1" page="1" pageScale="1" pageWidth="2000" pageHeight="2000" math="0" shadow="0">
      <root>
        <mxCell id="WIyWlLk6GJQsqaUBKTNV-0" />
        <mxCell id="WIyWlLk6GJQsqaUBKTNV-1" parent="WIyWlLk6GJQsqaUBKTNV-0" />
        <mxCell id="cjdVQ-IBfirkxDVM1TOb-44" value="" style="rounded=0;whiteSpace=wrap;html=1;" vertex="1" parent="WIyWlLk6GJQsqaUBKTNV-1">
          <mxGeometry x="1030" y="459" width="220" height="170" as="geometry" />
        </mxCell>
        <mxCell id="cjdVQ-IBfirkxDVM1TOb-42" value="" style="rounded=0;whiteSpace=wrap;html=1;" vertex="1" parent="WIyWlLk6GJQsqaUBKTNV-1">
          <mxGeometry x="440" y="380" width="430" height="640" as="geometry" />
        </mxCell>
        <mxCell id="cjdVQ-IBfirkxDVM1TOb-15" value="" style="rounded=0;whiteSpace=wrap;html=1;" vertex="1" parent="WIyWlLk6GJQsqaUBKTNV-1">
          <mxGeometry x="40" y="460" width="290" height="350" as="geometry" />
        </mxCell>
        <mxCell id="cjdVQ-IBfirkxDVM1TOb-8" value="&lt;p style=&quot;line-height: 120%&quot;&gt;&lt;font style=&quot;font-size: 21px&quot;&gt;Configuration&lt;/font&gt;&lt;/p&gt;" style="shape=folder;fontStyle=1;spacingTop=10;tabWidth=40;tabHeight=14;tabPosition=left;html=1;" vertex="1" parent="WIyWlLk6GJQsqaUBKTNV-1">
          <mxGeometry x="40" y="409" width="290" height="50" as="geometry" />
        </mxCell>
        <mxCell id="zkfFHV4jXpPFQw0GAbJ--0" value="UserDao" style="swimlane;fontStyle=3;align=center;verticalAlign=middle;childLayout=stackLayout;horizontal=1;startSize=40;horizontalStack=0;resizeParent=1;resizeLast=0;collapsible=1;marginBottom=0;rounded=0;shadow=0;strokeWidth=1;fontSize=17;" parent="WIyWlLk6GJQsqaUBKTNV-1" vertex="1">
          <mxGeometry x="480" y="409" width="350" height="334" as="geometry">
            <mxRectangle x="230" y="140" width="160" height="26" as="alternateBounds" />
          </mxGeometry>
        </mxCell>
        <mxCell id="zkfFHV4jXpPFQw0GAbJ--1" value="- namedTemplate: NamedParameterJdbcTemplate" style="text;align=left;verticalAlign=top;spacingLeft=4;spacingRight=4;overflow=hidden;rotatable=0;points=[[0,0.5],[1,0.5]];portConstraint=eastwest;fontSize=15;" parent="zkfFHV4jXpPFQw0GAbJ--0" vertex="1">
          <mxGeometry y="40" width="350" height="26" as="geometry" />
        </mxCell>
        <mxCell id="zkfFHV4jXpPFQw0GAbJ--2" value="- simpleInsert: SimpleJdbcInsert" style="text;align=left;verticalAlign=top;spacingLeft=4;spacingRight=4;overflow=hidden;rotatable=0;points=[[0,0.5],[1,0.5]];portConstraint=eastwest;rounded=0;shadow=0;html=0;fontSize=15;" parent="zkfFHV4jXpPFQw0GAbJ--0" vertex="1">
          <mxGeometry y="66" width="350" height="26" as="geometry" />
        </mxCell>
        <mxCell id="cjdVQ-IBfirkxDVM1TOb-52" value="- userMapper: RowMapper&lt;UserDto&gt;" style="text;align=left;verticalAlign=top;spacingLeft=4;spacingRight=4;overflow=hidden;rotatable=0;points=[[0,0.5],[1,0.5]];portConstraint=eastwest;rounded=0;shadow=0;html=0;fontSize=15;" vertex="1" parent="zkfFHV4jXpPFQw0GAbJ--0">
          <mxGeometry y="92" width="350" height="26" as="geometry" />
        </mxCell>
        <mxCell id="zkfFHV4jXpPFQw0GAbJ--4" value="" style="line;html=1;strokeWidth=1;align=left;verticalAlign=middle;spacingTop=-1;spacingLeft=3;spacingRight=3;rotatable=0;labelPosition=right;points=[];portConstraint=eastwest;" parent="zkfFHV4jXpPFQw0GAbJ--0" vertex="1">
          <mxGeometry y="118" width="350" height="8" as="geometry" />
        </mxCell>
        <mxCell id="zkfFHV4jXpPFQw0GAbJ--5" value="+ UserDao(DataSource)" style="text;align=left;verticalAlign=top;spacingLeft=4;spacingRight=4;overflow=hidden;rotatable=0;points=[[0,0.5],[1,0.5]];portConstraint=eastwest;fontSize=15;" parent="zkfFHV4jXpPFQw0GAbJ--0" vertex="1">
          <mxGeometry y="126" width="350" height="26" as="geometry" />
        </mxCell>
        <mxCell id="cjdVQ-IBfirkxDVM1TOb-50" value="+ selectAllUser(): List&lt;UserDto&gt;" style="text;align=left;verticalAlign=top;spacingLeft=4;spacingRight=4;overflow=hidden;rotatable=0;points=[[0,0.5],[1,0.5]];portConstraint=eastwest;fontSize=15;" vertex="1" parent="zkfFHV4jXpPFQw0GAbJ--0">
          <mxGeometry y="152" width="350" height="26" as="geometry" />
        </mxCell>
        <mxCell id="cjdVQ-IBfirkxDVM1TOb-59" value="+ selectUserById(String): UserDto" style="text;align=left;verticalAlign=top;spacingLeft=4;spacingRight=4;overflow=hidden;rotatable=0;points=[[0,0.5],[1,0.5]];portConstraint=eastwest;fontSize=15;" vertex="1" parent="zkfFHV4jXpPFQw0GAbJ--0">
          <mxGeometry y="178" width="350" height="26" as="geometry" />
        </mxCell>
        <mxCell id="cjdVQ-IBfirkxDVM1TOb-53" value="+ insertUser(UserDto): int" style="text;align=left;verticalAlign=top;spacingLeft=4;spacingRight=4;overflow=hidden;rotatable=0;points=[[0,0.5],[1,0.5]];portConstraint=eastwest;fontSize=15;" vertex="1" parent="zkfFHV4jXpPFQw0GAbJ--0">
          <mxGeometry y="204" width="350" height="26" as="geometry" />
        </mxCell>
        <mxCell id="cjdVQ-IBfirkxDVM1TOb-57" value="+ insertUserList(List&lt;UserDto&gt;): int[]" style="text;align=left;verticalAlign=top;spacingLeft=4;spacingRight=4;overflow=hidden;rotatable=0;points=[[0,0.5],[1,0.5]];portConstraint=eastwest;fontSize=15;" vertex="1" parent="zkfFHV4jXpPFQw0GAbJ--0">
          <mxGeometry y="230" width="350" height="26" as="geometry" />
        </mxCell>
        <mxCell id="cjdVQ-IBfirkxDVM1TOb-60" value="+ updateUser(UserDto): int" style="text;align=left;verticalAlign=top;spacingLeft=4;spacingRight=4;overflow=hidden;rotatable=0;points=[[0,0.5],[1,0.5]];portConstraint=eastwest;fontSize=15;" vertex="1" parent="zkfFHV4jXpPFQw0GAbJ--0">
          <mxGeometry y="256" width="350" height="26" as="geometry" />
        </mxCell>
        <mxCell id="cjdVQ-IBfirkxDVM1TOb-58" value="+ updateUserList(List&lt;UserDto&gt;): int[]" style="text;align=left;verticalAlign=top;spacingLeft=4;spacingRight=4;overflow=hidden;rotatable=0;points=[[0,0.5],[1,0.5]];portConstraint=eastwest;fontSize=15;" vertex="1" parent="zkfFHV4jXpPFQw0GAbJ--0">
          <mxGeometry y="282" width="350" height="26" as="geometry" />
        </mxCell>
        <mxCell id="cjdVQ-IBfirkxDVM1TOb-61" value="+ deleteUserById(String): int" style="text;align=left;verticalAlign=top;spacingLeft=4;spacingRight=4;overflow=hidden;rotatable=0;points=[[0,0.5],[1,0.5]];portConstraint=eastwest;fontSize=15;" vertex="1" parent="zkfFHV4jXpPFQw0GAbJ--0">
          <mxGeometry y="308" width="350" height="26" as="geometry" />
        </mxCell>
        <mxCell id="cjdVQ-IBfirkxDVM1TOb-17" value="DBConfig" style="swimlane;fontStyle=1;align=center;verticalAlign=middle;childLayout=stackLayout;horizontal=1;startSize=40;horizontalStack=0;resizeParent=1;resizeParentMax=0;resizeLast=0;collapsible=1;marginBottom=0;fontSize=17;" vertex="1" parent="WIyWlLk6GJQsqaUBKTNV-1">
          <mxGeometry x="85" y="603" width="200" height="174" as="geometry" />
        </mxCell>
        <mxCell id="cjdVQ-IBfirkxDVM1TOb-18" value="- driverClassName: String" style="text;strokeColor=none;fillColor=none;align=left;verticalAlign=top;spacingLeft=4;spacingRight=4;overflow=hidden;rotatable=0;points=[[0,0.5],[1,0.5]];portConstraint=eastwest;fontSize=15;" vertex="1" parent="cjdVQ-IBfirkxDVM1TOb-17">
          <mxGeometry y="40" width="200" height="24" as="geometry" />
        </mxCell>
        <mxCell id="cjdVQ-IBfirkxDVM1TOb-62" value="- dburl: String" style="text;strokeColor=none;fillColor=none;align=left;verticalAlign=top;spacingLeft=4;spacingRight=4;overflow=hidden;rotatable=0;points=[[0,0.5],[1,0.5]];portConstraint=eastwest;fontSize=15;" vertex="1" parent="cjdVQ-IBfirkxDVM1TOb-17">
          <mxGeometry y="64" width="200" height="24" as="geometry" />
        </mxCell>
        <mxCell id="cjdVQ-IBfirkxDVM1TOb-63" value="- userName: String" style="text;strokeColor=none;fillColor=none;align=left;verticalAlign=top;spacingLeft=4;spacingRight=4;overflow=hidden;rotatable=0;points=[[0,0.5],[1,0.5]];portConstraint=eastwest;fontSize=15;" vertex="1" parent="cjdVQ-IBfirkxDVM1TOb-17">
          <mxGeometry y="88" width="200" height="24" as="geometry" />
        </mxCell>
        <mxCell id="cjdVQ-IBfirkxDVM1TOb-64" value="- password: String" style="text;strokeColor=none;fillColor=none;align=left;verticalAlign=top;spacingLeft=4;spacingRight=4;overflow=hidden;rotatable=0;points=[[0,0.5],[1,0.5]];portConstraint=eastwest;fontSize=15;" vertex="1" parent="cjdVQ-IBfirkxDVM1TOb-17">
          <mxGeometry y="112" width="200" height="24" as="geometry" />
        </mxCell>
        <mxCell id="cjdVQ-IBfirkxDVM1TOb-19" value="" style="line;strokeWidth=1;fillColor=none;align=left;verticalAlign=middle;spacingTop=-1;spacingLeft=3;spacingRight=3;rotatable=0;labelPosition=right;points=[];portConstraint=eastwest;" vertex="1" parent="cjdVQ-IBfirkxDVM1TOb-17">
          <mxGeometry y="136" width="200" height="8" as="geometry" />
        </mxCell>
        <mxCell id="cjdVQ-IBfirkxDVM1TOb-20" value="+ dataSource(): DataSource" style="text;strokeColor=none;fillColor=none;align=left;verticalAlign=top;spacingLeft=4;spacingRight=4;overflow=hidden;rotatable=0;points=[[0,0.5],[1,0.5]];portConstraint=eastwest;fontSize=15;" vertex="1" parent="cjdVQ-IBfirkxDVM1TOb-17">
          <mxGeometry y="144" width="200" height="30" as="geometry" />
        </mxCell>
        <mxCell id="cjdVQ-IBfirkxDVM1TOb-29" value="ApplicationConfig" style="swimlane;fontStyle=1;childLayout=stackLayout;horizontal=1;startSize=47;fillColor=none;horizontalStack=0;resizeParent=1;resizeParentMax=0;resizeLast=0;collapsible=1;marginBottom=0;fontSize=17;" vertex="1" parent="WIyWlLk6GJQsqaUBKTNV-1">
          <mxGeometry x="100" y="480" width="170" height="87" as="geometry" />
        </mxCell>
        <mxCell id="cjdVQ-IBfirkxDVM1TOb-33" value="" style="endArrow=open;endFill=1;endSize=12;html=1;exitX=0.5;exitY=1;exitDx=0;exitDy=0;entryX=0.5;entryY=0;entryDx=0;entryDy=0;" edge="1" parent="WIyWlLk6GJQsqaUBKTNV-1" source="cjdVQ-IBfirkxDVM1TOb-29" target="cjdVQ-IBfirkxDVM1TOb-17">
          <mxGeometry width="160" relative="1" as="geometry">
            <mxPoint x="190" y="220" as="sourcePoint" />
            <mxPoint x="350" y="220" as="targetPoint" />
          </mxGeometry>
        </mxCell>
        <mxCell id="cjdVQ-IBfirkxDVM1TOb-34" style="edgeStyle=orthogonalEdgeStyle;rounded=0;orthogonalLoop=1;jettySize=auto;html=1;exitX=0.5;exitY=1;exitDx=0;exitDy=0;" edge="1" parent="WIyWlLk6GJQsqaUBKTNV-1" source="cjdVQ-IBfirkxDVM1TOb-15" target="cjdVQ-IBfirkxDVM1TOb-15">
          <mxGeometry relative="1" as="geometry" />
        </mxCell>
        <mxCell id="cjdVQ-IBfirkxDVM1TOb-35" value="&lt;font style=&quot;font-size: 21px&quot;&gt;Dto&lt;/font&gt;" style="shape=folder;fontStyle=1;spacingTop=10;tabWidth=40;tabHeight=14;tabPosition=left;html=1;" vertex="1" parent="WIyWlLk6GJQsqaUBKTNV-1">
          <mxGeometry x="1030" y="409" width="220" height="50" as="geometry" />
        </mxCell>
        <mxCell id="cjdVQ-IBfirkxDVM1TOb-36" value="&lt;font style=&quot;font-size: 21px&quot;&gt;Dao&lt;/font&gt;" style="shape=folder;fontStyle=1;spacingTop=10;tabWidth=40;tabHeight=14;tabPosition=left;html=1;" vertex="1" parent="WIyWlLk6GJQsqaUBKTNV-1">
          <mxGeometry x="440" y="330" width="430" height="50" as="geometry" />
        </mxCell>
        <mxCell id="cjdVQ-IBfirkxDVM1TOb-37" value="UserDto" style="swimlane;fontStyle=1;childLayout=stackLayout;horizontal=1;startSize=40;fillColor=none;horizontalStack=0;resizeParent=1;resizeParentMax=0;resizeLast=0;collapsible=1;marginBottom=0;fontSize=17;" vertex="1" parent="WIyWlLk6GJQsqaUBKTNV-1">
          <mxGeometry x="1070" y="498" width="140" height="92" as="geometry" />
        </mxCell>
        <mxCell id="cjdVQ-IBfirkxDVM1TOb-38" value="- id: int" style="text;strokeColor=none;fillColor=none;align=left;verticalAlign=top;spacingLeft=4;spacingRight=4;overflow=hidden;rotatable=0;points=[[0,0.5],[1,0.5]];portConstraint=eastwest;fontSize=15;" vertex="1" parent="cjdVQ-IBfirkxDVM1TOb-37">
          <mxGeometry y="40" width="140" height="26" as="geometry" />
        </mxCell>
        <mxCell id="cjdVQ-IBfirkxDVM1TOb-39" value="-  name: String" style="text;strokeColor=none;fillColor=none;align=left;verticalAlign=top;spacingLeft=4;spacingRight=4;overflow=hidden;rotatable=0;points=[[0,0.5],[1,0.5]];portConstraint=eastwest;fontSize=15;" vertex="1" parent="cjdVQ-IBfirkxDVM1TOb-37">
          <mxGeometry y="66" width="140" height="26" as="geometry" />
        </mxCell>
        <mxCell id="cjdVQ-IBfirkxDVM1TOb-45" value="DaoSqls" style="swimlane;fontStyle=1;childLayout=stackLayout;horizontal=1;startSize=40;fillColor=none;horizontalStack=0;resizeParent=1;resizeParentMax=0;resizeLast=0;collapsible=1;marginBottom=0;fontSize=17;" vertex="1" parent="WIyWlLk6GJQsqaUBKTNV-1">
          <mxGeometry x="570" y="820" width="160" height="144" as="geometry" />
        </mxCell>
        <mxCell id="cjdVQ-IBfirkxDVM1TOb-46" value="- SELECT_ALL: String" style="text;strokeColor=none;fillColor=none;align=left;verticalAlign=top;spacingLeft=4;spacingRight=4;overflow=hidden;rotatable=0;points=[[0,0.5],[1,0.5]];portConstraint=eastwest;fontStyle=4;fontSize=15;" vertex="1" parent="cjdVQ-IBfirkxDVM1TOb-45">
          <mxGeometry y="40" width="160" height="26" as="geometry" />
        </mxCell>
        <mxCell id="cjdVQ-IBfirkxDVM1TOb-47" value="- SELECT_BY_ID: String" style="text;strokeColor=none;fillColor=none;align=left;verticalAlign=top;spacingLeft=4;spacingRight=4;overflow=hidden;rotatable=0;points=[[0,0.5],[1,0.5]];portConstraint=eastwest;fontStyle=4;fontSize=15;" vertex="1" parent="cjdVQ-IBfirkxDVM1TOb-45">
          <mxGeometry y="66" width="160" height="26" as="geometry" />
        </mxCell>
        <mxCell id="cjdVQ-IBfirkxDVM1TOb-48" value="- UPDATE: String" style="text;strokeColor=none;fillColor=none;align=left;verticalAlign=top;spacingLeft=4;spacingRight=4;overflow=hidden;rotatable=0;points=[[0,0.5],[1,0.5]];portConstraint=eastwest;fontStyle=4;fontSize=15;" vertex="1" parent="cjdVQ-IBfirkxDVM1TOb-45">
          <mxGeometry y="92" width="160" height="26" as="geometry" />
        </mxCell>
        <mxCell id="cjdVQ-IBfirkxDVM1TOb-49" value="- DELETE: String" style="text;strokeColor=none;fillColor=none;align=left;verticalAlign=top;spacingLeft=4;spacingRight=4;overflow=hidden;rotatable=0;points=[[0,0.5],[1,0.5]];portConstraint=eastwest;fontStyle=4;fontSize=15;" vertex="1" parent="cjdVQ-IBfirkxDVM1TOb-45">
          <mxGeometry y="118" width="160" height="26" as="geometry" />
        </mxCell>
        <mxCell id="cjdVQ-IBfirkxDVM1TOb-67" value="Use" style="endArrow=open;endSize=12;dashed=1;html=1;fontSize=15;exitX=0.553;exitY=1.123;exitDx=0;exitDy=0;exitPerimeter=0;entryX=0.5;entryY=0;entryDx=0;entryDy=0;" edge="1" parent="WIyWlLk6GJQsqaUBKTNV-1" source="cjdVQ-IBfirkxDVM1TOb-61" target="cjdVQ-IBfirkxDVM1TOb-45">
          <mxGeometry width="160" relative="1" as="geometry">
            <mxPoint x="420" y="510" as="sourcePoint" />
            <mxPoint x="580" y="510" as="targetPoint" />
          </mxGeometry>
        </mxCell>
        <mxCell id="cjdVQ-IBfirkxDVM1TOb-68" value="Use" style="endArrow=open;endSize=12;dashed=1;html=1;fontSize=15;exitX=1;exitY=0.5;exitDx=0;exitDy=0;entryX=0;entryY=0.5;entryDx=0;entryDy=0;" edge="1" parent="WIyWlLk6GJQsqaUBKTNV-1" source="cjdVQ-IBfirkxDVM1TOb-50" target="cjdVQ-IBfirkxDVM1TOb-38">
          <mxGeometry width="160" relative="1" as="geometry">
            <mxPoint x="643.5499999999997" y="537.1979999999999" as="sourcePoint" />
            <mxPoint x="650" y="640" as="targetPoint" />
          </mxGeometry>
        </mxCell>
        <mxCell id="cjdVQ-IBfirkxDVM1TOb-69" value="DataSource" style="swimlane;fontStyle=1;childLayout=stackLayout;horizontal=1;startSize=47;fillColor=none;horizontalStack=0;resizeParent=1;resizeParentMax=0;resizeLast=0;collapsible=1;marginBottom=0;fontSize=17;" vertex="1" parent="WIyWlLk6GJQsqaUBKTNV-1">
          <mxGeometry x="140" y="900" width="170" height="110" as="geometry" />
        </mxCell>
        <mxCell id="cjdVQ-IBfirkxDVM1TOb-70" value="ApplicationContext" style="swimlane;fontStyle=1;childLayout=stackLayout;horizontal=1;startSize=47;fillColor=none;horizontalStack=0;resizeParent=1;resizeParentMax=0;resizeLast=0;collapsible=1;marginBottom=0;fontSize=17;" vertex="1" parent="WIyWlLk6GJQsqaUBKTNV-1">
          <mxGeometry x="270" y="140" width="190" height="100" as="geometry" />
        </mxCell>
        <mxCell id="cjdVQ-IBfirkxDVM1TOb-71" value="Use" style="endArrow=open;endSize=12;dashed=1;html=1;fontSize=15;exitX=0.455;exitY=1.133;exitDx=0;exitDy=0;exitPerimeter=0;entryX=0.5;entryY=0;entryDx=0;entryDy=0;" edge="1" parent="WIyWlLk6GJQsqaUBKTNV-1" source="cjdVQ-IBfirkxDVM1TOb-20" target="cjdVQ-IBfirkxDVM1TOb-69">
          <mxGeometry width="160" relative="1" as="geometry">
            <mxPoint x="520" y="460" as="sourcePoint" />
            <mxPoint x="680" y="460" as="targetPoint" />
          </mxGeometry>
        </mxCell>
        <mxCell id="cjdVQ-IBfirkxDVM1TOb-72" value="" style="endArrow=open;endFill=1;endSize=12;html=1;fontSize=15;exitX=0;exitY=0.5;exitDx=0;exitDy=0;entryX=1;entryY=0;entryDx=0;entryDy=0;" edge="1" parent="WIyWlLk6GJQsqaUBKTNV-1" source="cjdVQ-IBfirkxDVM1TOb-60" target="cjdVQ-IBfirkxDVM1TOb-69">
          <mxGeometry width="160" relative="1" as="geometry">
            <mxPoint x="520" y="460" as="sourcePoint" />
            <mxPoint x="680" y="460" as="targetPoint" />
          </mxGeometry>
        </mxCell>
        <mxCell id="cjdVQ-IBfirkxDVM1TOb-73" value="" style="endArrow=open;endFill=1;endSize=12;html=1;fontSize=15;exitX=0.75;exitY=1;exitDx=0;exitDy=0;entryX=0.25;entryY=0;entryDx=0;entryDy=0;" edge="1" parent="WIyWlLk6GJQsqaUBKTNV-1" source="cjdVQ-IBfirkxDVM1TOb-70" target="zkfFHV4jXpPFQw0GAbJ--0">
          <mxGeometry width="160" relative="1" as="geometry">
            <mxPoint x="520" y="510" as="sourcePoint" />
            <mxPoint x="680" y="510" as="targetPoint" />
          </mxGeometry>
        </mxCell>
        <mxCell id="cjdVQ-IBfirkxDVM1TOb-74" value="" style="endArrow=open;endFill=1;endSize=12;html=1;fontSize=15;exitX=0.25;exitY=1;exitDx=0;exitDy=0;entryX=1;entryY=0;entryDx=0;entryDy=0;" edge="1" parent="WIyWlLk6GJQsqaUBKTNV-1" source="cjdVQ-IBfirkxDVM1TOb-70" target="cjdVQ-IBfirkxDVM1TOb-29">
          <mxGeometry width="160" relative="1" as="geometry">
            <mxPoint x="520" y="510" as="sourcePoint" />
            <mxPoint x="680" y="510" as="targetPoint" />
          </mxGeometry>
        </mxCell>
      </root>
    </mxGraphModel>
  </diagram>
</mxfile>
